<?xml version="1.0" standalone="no"?>
<!DOCTYPE svg PUBLIC "-//W3C//DTD SVG 20010904//EN"
 "http://www.w3.org/TR/2001/REC-SVG-20010904/DTD/svg10.dtd">
<svg version="1.0" xmlns="http://www.w3.org/2000/svg"
 width="1280.000000pt" height="1103.000000pt" viewBox="0 0 1280.000000 1103.000000"
 preserveAspectRatio="xMidYMid meet">
<metadata>
Created by potrace 1.15, written by Peter Selinger 2001-2017
</metadata>
<g transform="translate(0.000000,1103.000000) scale(0.100000,-0.100000)"
fill="#ffffff" stroke="none">
<path d="M6192 11011 c-230 -63 -433 -252 -506 -473 -15 -42 -29 -110 -32
-150 -13 -148 33 -343 112 -475 46 -75 76 -107 147 -151 l58 -36 -2 -125 c0
-69 2 -255 6 -413 7 -259 6 -288 -8 -288 -9 0 -51 13 -94 29 -309 115 -495
262 -562 444 -24 65 -28 152 -22 427 4 146 1 174 -18 244 -44 158 -155 333
-297 465 -85 79 -234 194 -322 248 -57 35 -58 35 -147 29 -161 -9 -323 -69
-558 -205 -150 -86 -551 -284 -739 -364 -430 -182 -879 -316 -1308 -391 -392
-69 -627 -86 -1177 -86 -354 0 -456 -3 -513 -15 -134 -28 -210 -75 -210 -130
0 -36 57 -111 133 -175 54 -46 119 -84 262 -154 307 -151 449 -207 616 -242
46 -10 85 -18 87 -19 1 -1 -9 -28 -24 -59 -21 -46 -25 -66 -20 -100 23 -151
262 -257 696 -311 68 -8 130 -15 136 -15 9 0 9 -10 2 -40 -20 -79 50 -165 187
-225 126 -56 221 -77 375 -82 138 -5 198 1 358 33 31 6 32 5 32 -27 1 -80 79
-181 175 -225 119 -55 361 -69 501 -31 l50 14 -4 -30 c-8 -53 23 -94 102 -132
104 -50 254 -76 527 -91 l117 -6 -80 -76 c-175 -167 -258 -335 -260 -526 -4
-309 198 -531 656 -721 93 -39 317 -105 353 -105 32 0 29 -11 -12 -39 -72 -49
-192 -195 -242 -296 -35 -69 -63 -163 -77 -256 l-13 -91 39 -116 c41 -123 84
-215 126 -272 104 -140 239 -260 412 -366 95 -57 248 -134 269 -134 23 0 9
-18 -44 -55 -188 -129 -285 -343 -272 -599 8 -166 52 -278 157 -406 64 -77
127 -122 409 -296 l239 -148 -57 -64 c-91 -100 -210 -312 -230 -410 -6 -29
-11 -115 -11 -190 0 -153 14 -225 57 -300 26 -45 163 -190 231 -245 l33 -27
-43 -50 c-59 -69 -112 -158 -150 -254 -41 -106 -45 -229 -10 -317 31 -78 88
-168 148 -237 l52 -58 -18 -37 c-86 -175 -80 -311 19 -464 33 -52 49 -65 115
-99 l76 -39 0 -166 c0 -124 3 -170 14 -184 15 -21 85 -33 201 -34 104 -1 115
9 115 110 l0 79 35 0 c74 0 149 51 184 125 38 81 23 210 -35 296 l-33 50 42
62 c37 54 42 69 45 130 3 37 -1 88 -8 113 -14 49 -83 133 -144 175 l-35 23 87
43 c48 23 120 68 159 101 128 105 192 200 200 297 2 28 11 74 20 104 24 82 14
150 -40 257 -25 50 -61 111 -80 136 l-35 46 20 28 c30 45 87 160 102 206 36
112 41 148 41 278 -1 113 -5 147 -24 210 -30 96 -68 170 -124 245 l-45 59 27
16 c14 9 96 54 181 99 182 98 263 150 346 225 112 101 217 288 255 454 10 41
10 67 0 119 -42 227 -178 444 -349 558 -23 15 -42 29 -42 30 0 2 45 22 99 45
332 140 596 369 716 622 44 92 75 214 75 290 0 163 -108 423 -232 554 l-47 50
72 19 c420 107 784 354 861 585 24 73 32 223 16 303 -35 178 -112 327 -234
455 -32 34 -53 62 -45 62 54 0 347 22 403 30 97 15 230 74 263 117 21 27 25
41 20 74 -5 35 -3 40 11 34 109 -45 278 -66 359 -46 72 18 242 104 292 147 47
40 80 102 81 147 0 15 3 27 8 27 4 0 45 -7 92 -16 102 -18 336 -21 434 -5 159
27 321 101 381 176 26 32 30 45 30 96 -1 32 2 59 5 59 50 0 335 33 391 44 225
47 367 135 414 259 19 51 15 120 -10 153 -8 11 -15 22 -15 25 0 4 33 14 73 24
126 30 482 152 581 198 116 55 305 179 370 241 47 46 76 98 76 135 0 30 -45
77 -92 96 -103 41 -175 46 -543 39 -284 -5 -387 -3 -545 10 -636 54 -1024 115
-1325 207 -366 113 -1011 399 -1595 707 -63 33 -155 75 -205 93 -79 28 -103
32 -195 33 l-105 1 -70 -42 c-120 -71 -398 -325 -467 -427 -54 -78 -99 -178
-139 -306 -38 -121 -42 -204 -20 -365 7 -55 12 -131 9 -170 -12 -213 -231
-427 -538 -529 -93 -30 -201 -58 -206 -53 -5 5 15 737 22 802 5 47 9 53 65 98
101 81 177 197 220 337 27 90 32 268 10 365 -25 109 -94 238 -172 320 -146
153 -302 222 -524 231 -99 3 -133 1 -193 -15z m-190 -3349 c7 -8 34 -1090 27
-1096 -11 -9 -287 27 -639 84 -69 11 -201 29 -294 40 -245 30 -347 71 -453
183 -80 85 -113 167 -113 285 0 119 59 186 199 228 86 25 215 34 482 34 294 0
362 8 499 61 119 45 165 107 137 185 -7 20 -5 20 70 11 43 -5 81 -12 85 -15z
m950 -52 c-3 -28 2 -49 17 -74 65 -105 243 -138 716 -135 233 2 290 -1 338
-14 84 -24 148 -60 189 -105 48 -53 61 -98 56 -191 -8 -126 -68 -220 -197
-305 -120 -79 -234 -114 -446 -135 -202 -21 -299 -33 -435 -51 -74 -10 -189
-23 -255 -30 -66 -6 -148 -15 -182 -19 l-63 -8 0 46 c0 25 4 163 10 306 5 143
12 367 16 497 l6 237 62 9 c33 5 86 10 116 11 l56 1 -4 -40z m-116 -1520 c336
-59 572 -145 657 -239 47 -52 60 -98 55 -191 -6 -102 -44 -184 -129 -275 -168
-180 -402 -309 -668 -370 -36 -9 -75 -18 -85 -21 -19 -6 -19 1 -13 292 13 591
18 760 23 792 6 39 7 39 160 12z m-786 -310 c0 -124 5 -335 10 -470 5 -135 7
-246 5 -248 -2 -3 -16 5 -32 16 -15 10 -197 124 -403 251 -206 128 -383 242
-392 253 -37 43 -11 159 52 231 101 114 307 201 575 241 172 26 169 27 177
-14 4 -19 7 -136 8 -260z m39 -1542 c1 -79 4 -241 7 -360 6 -169 4 -218 -5
-218 -7 0 -57 44 -111 98 -96 95 -176 204 -198 271 -42 123 29 228 216 322 93
46 90 50 91 -113z m746 -17 c165 -103 190 -122 190 -144 0 -33 -342 -460 -387
-483 l-31 -16 7 238 c4 130 12 259 17 285 6 26 9 91 7 143 -2 53 -1 96 2 95 3
0 91 -53 195 -118z"/>
</g>
</svg>
