<svg id="visual" viewBox="0 0 900 600" width="900" height="600" xmlns="http://www.w3.org/2000/svg" xmlns:xlink="http://www.w3.org/1999/xlink" version="1.1"><rect x="0" y="0" width="900" height="600" fill="#16213d"></rect><path d="M0 31L12.5 35.2C25 39.3 50 47.7 75 48.8C100 50 125 44 150 40C175 36 200 34 225 34.3C250 34.7 275 37.3 300 36.2C325 35 350 30 375 31.3C400 32.7 425 40.3 450 43.2C475 46 500 44 525 43C550 42 575 42 600 44.2C625 46.3 650 50.7 675 52.8C700 55 725 55 750 54.5C775 54 800 53 825 50.2C850 47.3 875 42.7 887.5 40.3L900 38L900 0L887.5 0C875 0 850 0 825 0C800 0 775 0 750 0C725 0 700 0 675 0C650 0 625 0 600 0C575 0 550 0 525 0C500 0 475 0 450 0C425 0 400 0 375 0C350 0 325 0 300 0C275 0 250 0 225 0C200 0 175 0 150 0C125 0 100 0 75 0C50 0 25 0 12.5 0L0 0Z" fill="#0a3142"></path><path d="M0 18L12.5 21.3C25 24.7 50 31.3 75 34.2C100 37 125 36 150 33.8C175 31.7 200 28.3 225 26.3C250 24.3 275 23.7 300 26.2C325 28.7 350 34.3 375 38C400 41.7 425 43.3 450 43.3C475 43.3 500 41.7 525 40.3C550 39 575 38 600 37.3C625 36.7 650 36.3 675 35.5C700 34.7 725 33.3 750 32.7C775 32 800 32 825 32.8C850 33.7 875 35.3 887.5 36.2L900 37L900 0L887.5 0C875 0 850 0 825 0C800 0 775 0 750 0C725 0 700 0 675 0C650 0 625 0 600 0C575 0 550 0 525 0C500 0 475 0 450 0C425 0 400 0 375 0C350 0 325 0 300 0C275 0 250 0 225 0C200 0 175 0 150 0C125 0 100 0 75 0C50 0 25 0 12.5 0L0 0Z" fill="#103e55"></path><path d="M0 30L12.5 27.8C25 25.7 50 21.3 75 22.5C100 23.7 125 30.3 150 30.2C175 30 200 23 225 20C250 17 275 18 300 17.2C325 16.3 350 13.7 375 16C400 18.3 425 25.7 450 27.5C475 29.3 500 25.7 525 25.8C550 26 575 30 600 31.3C625 32.7 650 31.3 675 30.3C700 29.3 725 28.7 750 27.7C775 26.7 800 25.3 825 22.5C850 19.7 875 15.3 887.5 13.2L900 11L900 0L887.5 0C875 0 850 0 825 0C800 0 775 0 750 0C725 0 700 0 675 0C650 0 625 0 600 0C575 0 550 0 525 0C500 0 475 0 450 0C425 0 400 0 375 0C350 0 325 0 300 0C275 0 250 0 225 0C200 0 175 0 150 0C125 0 100 0 75 0C50 0 25 0 12.5 0L0 0Z" fill="#184b68"></path><path d="M0 20L12.5 18.7C25 17.3 50 14.7 75 13.2C100 11.7 125 11.3 150 11.8C175 12.3 200 13.7 225 12.8C250 12 275 9 300 9.3C325 9.7 350 13.3 375 14C400 14.7 425 12.3 450 14C475 15.7 500 21.3 525 22C550 22.7 575 18.3 600 17.7C625 17 650 20 675 19C700 18 725 13 750 11.7C775 10.3 800 12.7 825 13.8C850 15 875 15 887.5 15L900 15L900 0L887.5 0C875 0 850 0 825 0C800 0 775 0 750 0C725 0 700 0 675 0C650 0 625 0 600 0C575 0 550 0 525 0C500 0 475 0 450 0C425 0 400 0 375 0C350 0 325 0 300 0C275 0 250 0 225 0C200 0 175 0 150 0C125 0 100 0 75 0C50 0 25 0 12.5 0L0 0Z" fill="#23587c"></path><path d="M0 13L12.5 13.5C25 14 50 15 75 12.8C100 10.7 125 5.3 150 3.7C175 2 200 4 225 6.8C250 9.7 275 13.3 300 14.7C325 16 350 15 375 14C400 13 425 12 450 9.7C475 7.3 500 3.7 525 2.7C550 1.7 575 3.3 600 4.2C625 5 650 5 675 4.8C700 4.7 725 4.3 750 4.3C775 4.3 800 4.7 825 5.7C850 6.7 875 8.3 887.5 9.2L900 10L900 0L887.5 0C875 0 850 0 825 0C800 0 775 0 750 0C725 0 700 0 675 0C650 0 625 0 600 0C575 0 550 0 525 0C500 0 475 0 450 0C425 0 400 0 375 0C350 0 325 0 300 0C275 0 250 0 225 0C200 0 175 0 150 0C125 0 100 0 75 0C50 0 25 0 12.5 0L0 0Z" fill="#2f6690"></path></svg>